<mxfile host="app.diagrams.net" agent="Mozilla/5.0 (Windows NT 10.0; Win64; x64) AppleWebKit/537.36 (KHTML, like Gecko) Chrome/133.0.0.0 Safari/537.36" version="26.0.16">
  <diagram name="Page-1" id="wcR-UidZkr71XZt1Et-G">
    <mxGraphModel dx="1434" dy="772" grid="0" gridSize="10" guides="1" tooltips="1" connect="1" arrows="1" fold="1" page="1" pageScale="1" pageWidth="850" pageHeight="1100" math="0" shadow="0">
      <root>
        <mxCell id="0" />
        <mxCell id="1" parent="0" />
        <mxCell id="ydcXctAWkC2qsWSq_SQs-14" style="edgeStyle=orthogonalEdgeStyle;rounded=0;orthogonalLoop=1;jettySize=auto;html=1;exitX=0.5;exitY=0.5;exitDx=0;exitDy=0;exitPerimeter=0;" edge="1" parent="1" source="ydcXctAWkC2qsWSq_SQs-1" target="ydcXctAWkC2qsWSq_SQs-13">
          <mxGeometry relative="1" as="geometry" />
        </mxCell>
        <mxCell id="ydcXctAWkC2qsWSq_SQs-1" value="User&lt;div&gt;&lt;br&gt;&lt;/div&gt;" style="shape=umlActor;verticalLabelPosition=bottom;verticalAlign=top;html=1;outlineConnect=0;" vertex="1" parent="1">
          <mxGeometry x="20" y="273" width="30" height="60" as="geometry" />
        </mxCell>
        <mxCell id="ydcXctAWkC2qsWSq_SQs-4" value="" style="rounded=0;whiteSpace=wrap;html=1;" vertex="1" parent="1">
          <mxGeometry x="392" y="183" width="438" height="210" as="geometry" />
        </mxCell>
        <mxCell id="ydcXctAWkC2qsWSq_SQs-24" style="edgeStyle=orthogonalEdgeStyle;rounded=0;orthogonalLoop=1;jettySize=auto;html=1;exitX=0.5;exitY=0;exitDx=0;exitDy=0;" edge="1" parent="1" source="ydcXctAWkC2qsWSq_SQs-5" target="ydcXctAWkC2qsWSq_SQs-6">
          <mxGeometry relative="1" as="geometry" />
        </mxCell>
        <mxCell id="ydcXctAWkC2qsWSq_SQs-5" value="Controller" style="rounded=0;whiteSpace=wrap;html=1;" vertex="1" parent="1">
          <mxGeometry x="439" y="256" width="120" height="87" as="geometry" />
        </mxCell>
        <mxCell id="ydcXctAWkC2qsWSq_SQs-6" value="Model" style="rounded=0;whiteSpace=wrap;html=1;" vertex="1" parent="1">
          <mxGeometry x="680" y="191" width="120" height="82" as="geometry" />
        </mxCell>
        <mxCell id="ydcXctAWkC2qsWSq_SQs-23" style="edgeStyle=orthogonalEdgeStyle;rounded=0;orthogonalLoop=1;jettySize=auto;html=1;exitX=0;exitY=0.75;exitDx=0;exitDy=0;entryX=0.5;entryY=1;entryDx=0;entryDy=0;" edge="1" parent="1" source="ydcXctAWkC2qsWSq_SQs-7" target="ydcXctAWkC2qsWSq_SQs-5">
          <mxGeometry relative="1" as="geometry">
            <Array as="points">
              <mxPoint x="680" y="363" />
              <mxPoint x="499" y="363" />
            </Array>
          </mxGeometry>
        </mxCell>
        <mxCell id="ydcXctAWkC2qsWSq_SQs-7" value="View" style="rounded=0;whiteSpace=wrap;html=1;" vertex="1" parent="1">
          <mxGeometry x="680" y="303" width="120" height="80" as="geometry" />
        </mxCell>
        <mxCell id="ydcXctAWkC2qsWSq_SQs-11" value="&lt;b&gt;The MVC pattern in ASP.NET Core&lt;/b&gt;" style="text;html=1;align=center;verticalAlign=middle;whiteSpace=wrap;rounded=0;" vertex="1" parent="1">
          <mxGeometry x="221" y="102" width="316" height="30" as="geometry" />
        </mxCell>
        <mxCell id="ydcXctAWkC2qsWSq_SQs-13" value="Browser" style="rounded=0;whiteSpace=wrap;html=1;" vertex="1" parent="1">
          <mxGeometry x="79" y="273" width="120" height="64" as="geometry" />
        </mxCell>
        <mxCell id="ydcXctAWkC2qsWSq_SQs-16" value="" style="endArrow=classic;html=1;rounded=0;exitX=1;exitY=0.25;exitDx=0;exitDy=0;entryX=0;entryY=0.5;entryDx=0;entryDy=0;" edge="1" parent="1" source="ydcXctAWkC2qsWSq_SQs-13" target="ydcXctAWkC2qsWSq_SQs-4">
          <mxGeometry width="50" height="50" relative="1" as="geometry">
            <mxPoint x="261" y="369" as="sourcePoint" />
            <mxPoint x="311" y="319" as="targetPoint" />
          </mxGeometry>
        </mxCell>
        <mxCell id="ydcXctAWkC2qsWSq_SQs-26" value="Request" style="edgeLabel;html=1;align=center;verticalAlign=middle;resizable=0;points=[];" vertex="1" connectable="0" parent="ydcXctAWkC2qsWSq_SQs-16">
          <mxGeometry x="-0.0776" y="3" relative="1" as="geometry">
            <mxPoint y="-10" as="offset" />
          </mxGeometry>
        </mxCell>
        <mxCell id="ydcXctAWkC2qsWSq_SQs-17" value="" style="endArrow=classic;html=1;rounded=0;exitX=0;exitY=0.5;exitDx=0;exitDy=0;entryX=0;entryY=0.5;entryDx=0;entryDy=0;" edge="1" parent="1" source="ydcXctAWkC2qsWSq_SQs-4" target="ydcXctAWkC2qsWSq_SQs-5">
          <mxGeometry width="50" height="50" relative="1" as="geometry">
            <mxPoint x="261" y="369" as="sourcePoint" />
            <mxPoint x="311" y="319" as="targetPoint" />
          </mxGeometry>
        </mxCell>
        <mxCell id="ydcXctAWkC2qsWSq_SQs-18" value="" style="endArrow=classic;html=1;rounded=0;exitX=0;exitY=0.75;exitDx=0;exitDy=0;entryX=1;entryY=0.75;entryDx=0;entryDy=0;" edge="1" parent="1" source="ydcXctAWkC2qsWSq_SQs-5" target="ydcXctAWkC2qsWSq_SQs-13">
          <mxGeometry width="50" height="50" relative="1" as="geometry">
            <mxPoint x="305" y="371" as="sourcePoint" />
            <mxPoint x="249" y="324" as="targetPoint" />
          </mxGeometry>
        </mxCell>
        <mxCell id="ydcXctAWkC2qsWSq_SQs-25" value="Response" style="edgeLabel;html=1;align=center;verticalAlign=middle;resizable=0;points=[];" vertex="1" connectable="0" parent="ydcXctAWkC2qsWSq_SQs-18">
          <mxGeometry x="0.275" y="-1" relative="1" as="geometry">
            <mxPoint y="13" as="offset" />
          </mxGeometry>
        </mxCell>
        <mxCell id="ydcXctAWkC2qsWSq_SQs-19" value="" style="endArrow=classic;html=1;rounded=0;exitX=0.5;exitY=1;exitDx=0;exitDy=0;entryX=0.5;entryY=0;entryDx=0;entryDy=0;" edge="1" parent="1" source="ydcXctAWkC2qsWSq_SQs-6" target="ydcXctAWkC2qsWSq_SQs-7">
          <mxGeometry width="50" height="50" relative="1" as="geometry">
            <mxPoint x="261" y="386" as="sourcePoint" />
            <mxPoint x="311" y="336" as="targetPoint" />
          </mxGeometry>
        </mxCell>
        <mxCell id="ydcXctAWkC2qsWSq_SQs-27" value="Server" style="text;html=1;align=center;verticalAlign=middle;resizable=0;points=[];autosize=1;strokeColor=none;fillColor=none;" vertex="1" parent="1">
          <mxGeometry x="584.5" y="157" width="53" height="26" as="geometry" />
        </mxCell>
      </root>
    </mxGraphModel>
  </diagram>
</mxfile>
